<svg width="125" height="60" viewBox="0 0 125 60" fill="none" xmlns="http://www.w3.org/2000/svg">
<path d="M87.5967 39.1256C85.9072 36.6161 83.4798 35.4733 80.4492 35.8557C77.2911 36.2564 74.9799 37.9913 73.3202 40.6523C72.5313 41.9183 71.9465 43.2637 71.7949 44.7663C71.6788 45.9162 72.6149 46.654 73.6799 46.2193C74.0367 46.0734 74.371 45.8199 74.6514 45.548C75.9812 44.2522 77.2529 42.8941 78.6153 41.6323C80.5922 39.7983 83.3269 40.6197 84.0236 43.2113C84.2502 44.0483 84.2247 44.0851 83.3481 44.1786C82.6924 44.2479 81.9829 44.3386 81.6785 44.9815C81.4589 45.446 81.4377 46.0267 81.4207 46.5591C81.398 47.3621 81.8824 47.7785 82.6797 47.7162C83.0706 47.6864 83.4586 47.6383 83.9472 47.5901C83.2462 49.012 82.3724 50.1138 80.8401 50.4027C80.2325 50.516 79.5457 50.4522 78.9466 50.2837C78.3745 50.1208 77.6678 49.7101 77.7117 49.0884C77.7542 48.4724 78.4595 48.1821 79.0911 48.0476C79.8771 47.879 80.4124 47.406 80.605 46.637C80.8273 45.7463 80.8514 44.8413 80.1702 44.1049C79.4395 43.3161 78.2555 43.3303 77.4214 44.1446C76.4018 45.1416 75.4005 46.1598 74.4234 47.1993C73.9943 47.6553 73.5298 47.9399 72.9024 48.0405C72.1787 48.1552 71.8119 48.7217 72.0229 49.4241C72.207 50.0373 72.4591 50.6406 72.7636 51.2042C74.9488 55.2432 79.7085 56.5956 83.705 54.3382C86.0842 52.9929 87.6533 50.9606 88.5299 48.4172C89.6402 45.1982 89.5496 42.0274 87.5953 39.1285L87.5967 39.1256ZM78.0516 37.0169C77.0192 37.4828 76.0959 38.1187 75.3085 38.9061C74.8624 39.3522 74.4602 39.8479 74.1132 40.3804C74.0849 40.4243 74.0325 40.4441 73.9843 40.4342C73.9702 40.4328 73.956 40.4257 73.9433 40.4186C73.9305 40.4101 73.9206 40.4002 73.9135 40.3889C73.8795 40.3478 73.8753 40.2897 73.905 40.2444C73.9815 40.1269 74.0608 40.0107 74.1444 39.896C74.3299 39.6 74.6032 39.2715 74.9261 38.9429C74.9275 38.9401 74.9304 38.9373 74.9332 38.9358C74.9983 38.865 75.0649 38.7956 75.1329 38.7291C75.9429 37.9204 76.8903 37.2676 77.9511 36.7889C78.0134 36.7606 78.0884 36.7889 78.1168 36.8541C78.1238 36.8696 78.1267 36.8866 78.1267 36.9036C78.1267 36.9504 78.0998 36.9957 78.053 37.0169H78.0516Z" fill="#A01E5D"/>
<path d="M96.1901 34.6873C96.1788 34.693 96.1646 34.7001 96.1533 34.7071C96.1689 34.6986 96.1858 34.6887 96.2028 34.6816C96.1986 34.6831 96.1943 34.6859 96.1901 34.6873ZM94.7513 35.9406C94.655 36.0058 94.5572 36.0737 94.4609 36.1403C94.5615 36.0808 94.6564 36.0072 94.7513 35.9406Z" fill="black"/>
<path d="M108.166 42.2031C108.079 46.0508 106.62 49.2372 103.467 51.513C100.62 53.5693 96.6641 53.8016 93.7964 51.4564C92.3165 50.247 91.3407 48.6849 90.9371 46.8C90.7544 45.9474 91.1382 45.3725 92.012 45.2436C92.5728 45.1601 92.9877 44.8881 93.3687 44.4959C94.1886 43.6504 95.0624 42.8531 95.847 41.9765C96.7902 40.9228 98.0166 40.801 99.2642 40.8988C100.409 40.988 101.176 42.3758 100.913 43.6532C100.679 44.789 99.9015 45.4702 98.7204 45.5183C97.8764 45.5523 97.2334 45.8993 96.7349 46.5734C96.548 46.8241 96.5749 46.9926 96.7661 47.2192C97.7702 48.4059 99.5829 48.6155 100.951 47.6582C102.364 46.6697 103.021 45.2436 103.235 43.5782C103.375 42.492 103.305 41.4213 102.938 40.3889C102.129 38.1131 99.6608 37.3342 97.7801 38.8566C96.5338 39.8635 95.4519 41.0744 94.292 42.1889C93.9706 42.499 93.6519 42.8205 93.2922 43.0839C92.4836 43.6745 91.4228 43.489 91.09 42.6676C90.9498 42.3249 90.9371 41.8703 91.0235 41.5049C91.8279 38.1315 93.7142 35.5159 96.8822 34.0855C101.567 31.9683 105.65 34.0529 107.421 38.2194C107.962 39.4911 108.166 40.8265 108.169 42.2059L108.166 42.2031Z" fill="#A01E5D"/>
<path d="M94.7513 35.9407C94.655 36.0087 94.5615 36.0823 94.4609 36.1404C94.5572 36.0738 94.655 36.0058 94.7513 35.9407Z" fill="white"/>
<path d="M123.902 35.2C122.412 32.3917 119.739 30.9387 116.642 31.2913C114.784 31.5009 112.93 31.7601 111.075 31.9923C110.118 32.1127 109.917 32.3336 109.918 33.2952V41.8575H109.911V46.1386C109.911 47.5661 109.911 48.9936 109.91 50.4197C109.91 51.5739 110.251 51.8628 111.394 51.7056C112.888 51.5016 114.382 51.3076 115.877 51.1193C118.448 50.795 120.637 49.7569 122.289 47.7091C123.954 45.6429 124.842 43.2821 124.981 40.6339C125.08 38.7291 124.805 36.9022 123.9 35.1986L123.902 35.2ZM118.257 45.2704C117.33 46.0862 116.287 46.4487 115.082 46.4728C114.657 46.4813 114.497 46.334 114.502 45.895C114.524 44.3513 114.508 42.8063 114.511 41.2627C114.515 39.7516 114.524 38.2405 114.529 36.7295C114.529 36.5666 114.529 36.4037 114.529 36.1602C115.392 36.1007 116.173 35.9647 116.942 36.01C118.377 36.095 119.351 36.9079 119.841 38.2335C120.527 40.0844 120.35 43.4294 118.255 45.2704H118.257Z" fill="#A01E5D"/>
<path d="M114.521 6.74899C115.276 5.66561 116.028 4.5794 116.785 3.49744C117.289 2.77802 117.805 2.06568 118.303 1.34343C118.697 0.774125 119.157 0.387508 119.914 0.350687C120.721 0.311034 121.521 0.142508 122.323 0.0193007C122.738 -0.0444275 123.084 0.0405434 123.318 0.411583C123.557 0.792535 123.522 1.18057 123.273 1.53036C122.636 2.41973 121.98 3.29776 121.331 4.17862C120.024 5.95451 118.717 7.7304 117.367 9.56436C117.863 10.2356 118.352 10.9196 118.863 11.5867C120.235 13.3781 121.586 15.1852 123.005 16.9384C123.933 18.0841 123.671 18.9522 122.154 19.125C121.365 19.2142 120.572 19.2992 119.792 19.445C119.122 19.5711 118.699 19.3105 118.316 18.7908C117.128 17.1735 115.913 15.576 114.706 13.9729C114.643 13.888 114.569 13.8115 114.419 13.6359C114.419 14.4445 114.419 15.1328 114.419 15.8225C114.417 16.9186 114.42 18.0133 114.408 19.1094C114.4 19.7439 114.134 20.0328 113.496 20.1276C112.593 20.2622 111.691 20.3882 110.788 20.5157C110.183 20.6021 109.835 20.2976 109.819 19.6348C109.805 19.0712 109.828 18.5061 109.828 17.9425C109.832 12.8301 109.835 7.71766 109.838 2.60525C109.838 1.74704 110.034 1.5162 110.877 1.40716C111.697 1.30236 112.516 1.18057 113.34 1.10693C114.157 1.0347 114.417 1.2882 114.422 2.12374C114.429 3.53426 114.419 4.94619 114.416 6.35671C114.416 6.47 114.416 6.58471 114.416 6.69801C114.451 6.715 114.487 6.73058 114.521 6.74757V6.74899Z" fill="black"/>
<path d="M63.3798 50.1618C63.3798 51.3883 63.3798 52.5637 63.3798 53.7405C63.3798 54.6865 63.3826 55.6326 63.3798 56.5786C63.377 57.1578 63.2084 57.424 62.6406 57.5189C61.6606 57.6832 60.6735 57.8078 59.685 57.9027C59.1553 57.9537 58.8523 57.6421 58.8013 57.111C58.79 56.9963 58.7928 56.8788 58.7928 56.7627C58.7928 51.1036 58.7928 45.4431 58.7928 39.7841C58.7928 38.7064 58.9953 38.5152 60.0759 38.3821C63.183 37.9983 66.2886 37.5989 69.3929 37.1939C70.4706 37.0537 70.8204 37.344 70.8091 38.4458C70.8006 39.2417 70.7963 40.039 70.7666 40.8349C70.7454 41.4113 70.5145 41.6903 69.9438 41.7738C68.5177 41.982 67.0888 42.1647 65.6599 42.353C65.0367 42.4352 64.4122 42.5187 63.7862 42.5754C63.4662 42.6051 63.3741 42.7524 63.3812 43.0555C63.3968 43.6687 63.377 44.2833 63.3826 44.8979C63.3869 45.4191 63.5682 45.606 64.0822 45.5465C65.2166 45.4148 66.3467 45.2548 67.4782 45.1061C67.9711 45.0424 68.4625 44.9673 68.9567 44.9191C69.5175 44.8653 69.9339 45.2123 69.9466 45.7788C69.9679 46.6908 69.9636 47.6042 69.948 48.5177C69.9396 49.0374 69.6351 49.349 69.0714 49.4226C67.4117 49.6393 65.7505 49.8404 64.0907 50.05C63.8783 50.0769 63.6659 50.1165 63.3826 50.1618H63.3798Z" fill="#A01E5D"/>
<path d="M72.3371 22.2603C72.7421 22.7149 72.7676 22.9103 72.3682 23.3139C69.1195 26.6009 64.3711 26.9337 61.043 24.2811C59.1751 22.7927 58.1526 20.769 57.9317 18.4167C57.555 14.3792 58.9952 11.0554 62.1972 8.56296C63.983 7.17369 66.062 6.53783 68.3364 6.7021C69.754 6.80407 71.0441 7.31531 72.1841 8.16927C72.7761 8.61253 72.786 8.82213 72.3569 9.39851C71.6828 10.3006 71.0101 11.2056 70.3346 12.1077C70.227 12.2507 70.1023 12.3796 69.9664 12.5368C67.7586 11.0866 65.7688 11.2622 64.16 13.0225C63.5567 13.6825 63.1546 14.4599 62.935 15.3266C62.6207 16.5729 62.6773 17.7993 63.2438 18.962C64.4093 21.3468 67.2572 21.8566 69.2597 20.0595C69.9083 19.4775 69.8998 19.4831 70.462 20.136C71.0795 20.8526 71.7083 21.5578 72.3371 22.2631V22.2603Z" fill="black"/>
<path d="M107.365 19.1588C104.879 21.6994 101.078 22.5307 97.9798 21.1301C95.3089 19.9221 93.8559 17.7299 93.2682 14.9216C93.1336 14.2758 93.0968 13.6102 93.0146 12.9531C93.0826 8.66351 95.6728 4.63731 99.4979 3.12483C102.121 2.08819 104.688 2.2114 107.069 3.88249C107.75 4.36116 107.778 4.5835 107.285 5.24485C106.601 6.16254 105.926 7.08589 105.252 8.01065C105.085 8.24149 104.95 8.37178 104.661 8.13244C103.231 6.94993 101.262 7.26433 100.009 8.21883C97.96 9.77663 97.3099 12.8936 98.5972 15.1199C99.7103 17.0445 102.214 17.4976 104.025 16.0999C104.064 16.0701 104.101 16.0361 104.14 16.0036C104.993 15.2969 104.986 15.304 105.695 16.1381C106.243 16.7825 106.817 17.407 107.38 18.0372C107.831 18.54 107.829 18.683 107.365 19.1588Z" fill="black"/>
<path d="M74.7067 15.3083C74.7067 12.5185 74.7067 9.72858 74.7067 6.9387C74.7067 5.96721 74.8893 5.78027 75.8339 5.67122C76.6072 5.582 77.379 5.48146 78.1466 5.35117C79.0119 5.20388 79.3546 5.45172 79.3631 6.35241C79.3801 8.22884 79.373 10.1053 79.3744 11.9817C79.3744 14.14 79.3744 16.2997 79.3744 18.4593C79.3744 19.4549 79.5627 19.639 80.5612 19.5172C81.5638 19.3954 82.5622 19.2425 83.5592 19.0782C84.256 18.9635 84.7091 19.2821 84.7247 19.9874C84.7431 20.9008 84.7346 21.8143 84.7247 22.7277C84.7162 23.4046 84.4316 23.7318 83.7546 23.8224C81.7182 24.0986 79.6789 24.3605 77.641 24.6282C77.0165 24.7103 76.3919 24.7826 75.7688 24.8732C75.1103 24.9695 74.7109 24.6594 74.6996 23.9796C74.684 23.1327 74.7024 22.2858 74.7038 21.439C74.7038 19.3968 74.7038 17.3533 74.7038 15.3112H74.7081L74.7067 15.3083Z" fill="black"/>
<path d="M86.7795 13.8144C86.7795 10.9933 86.7795 8.1723 86.7795 5.35127C86.7795 4.51997 86.9707 4.29197 87.7808 4.16593C88.5809 4.0413 89.3796 3.91668 90.1826 3.81047C91.0465 3.69576 91.3878 4.00165 91.3878 4.87119C91.3878 10.5302 91.3864 16.1879 91.3821 21.8469C91.3821 22.6244 91.1074 22.919 90.3356 23.0125C89.5453 23.1088 88.7551 23.2051 87.9663 23.3113C87.084 23.4302 86.7696 23.1654 86.7682 22.276C86.7668 19.455 86.7682 16.634 86.7682 13.8129H86.7795V13.8144Z" fill="black"/>
<path d="M102.971 28.5114C102.165 28.5114 101.727 28.1163 101.651 27.4634C101.569 26.7539 101.964 26.1308 102.639 26.0146C103.551 25.856 104.472 25.7441 105.391 25.6238C107.657 25.3292 109.924 25.0361 112.191 24.7542C114.756 24.4342 117.321 24.1297 119.886 23.8125C120.527 23.7332 121.166 23.6454 121.805 23.5477C122.561 23.4301 123.18 23.8012 123.337 24.4809C123.494 25.1692 123.082 25.8787 122.337 26.0061C120.934 26.2455 119.519 26.4183 118.107 26.6009C114.738 27.0357 111.367 27.462 107.998 27.8882C106.272 28.1063 104.544 28.3174 102.971 28.5114Z" fill="#A01E5D"/>
<path d="M60.1864 33.8771C59.3834 33.887 58.9019 33.4919 58.8155 32.8291C58.7263 32.1437 59.0917 31.522 59.7644 31.4087C60.9879 31.2005 62.2243 31.0589 63.4563 30.8989C65.4758 30.6383 67.4953 30.3848 69.5148 30.1313C71.4535 29.8877 73.3923 29.6484 75.3296 29.4006C76.1666 29.2944 77.0021 29.1839 77.8362 29.0564C78.6605 28.9318 79.2085 29.2958 79.3544 30.0902C79.4847 30.7983 79.0159 31.4625 78.2384 31.5843C77.2075 31.7458 76.168 31.8605 75.1328 31.9922C71.2553 32.4878 67.3777 32.9835 63.4988 33.4763C62.3659 33.6208 61.2301 33.7511 60.1864 33.8757V33.8771Z" fill="#A01E5D"/>
<path d="M92.171 31.8224C90.7378 31.8054 89.5992 30.8226 89.4222 29.3242C89.1899 27.3614 90.5933 25.3986 92.44 25.1706C94.1012 24.9652 95.4961 26.0146 95.6873 27.6956C95.9352 29.8638 94.2442 31.8464 92.171 31.8224ZM91.2533 28.6105C91.249 29.3186 91.739 29.8836 92.3706 29.8964C93.1113 29.9105 93.8491 29.1585 93.8647 28.3726C93.8775 27.7084 93.3138 27.115 92.6638 27.1065C91.916 27.098 91.2589 27.7976 91.2547 28.6105H91.2533Z" fill="#A01E5D"/>
<path d="M86.8984 27.8415C86.8984 29.1203 86.9027 30.3793 86.897 31.6383C86.8942 32.1736 86.6308 32.5135 86.1691 32.6211C85.546 32.7642 85.1084 32.4597 85.0928 31.8196C85.0673 30.7744 85.0815 29.7293 85.0801 28.6841C85.0801 28.5057 85.0801 28.3273 85.0801 28.0922C84.709 28.1375 84.4031 28.1814 84.0944 28.2097C83.552 28.2593 83.1994 28.0355 83.113 27.5965C82.9912 26.9876 83.2575 26.4763 83.8239 26.3673C84.5547 26.2271 85.2968 26.1506 86.0346 26.0486C86.5756 25.9736 87.118 25.9014 87.6604 25.832C88.2452 25.7569 88.6432 26.0005 88.765 26.5061C88.8853 27.0031 88.5979 27.4733 88.0512 27.639C87.8643 27.6957 87.6618 27.6971 87.4678 27.7296C87.2922 27.7594 87.1165 27.8004 86.9013 27.8444L86.8984 27.8415Z" fill="#A01E5D"/>
<path d="M96.6617 34.635C96.6617 34.6803 96.6362 34.7242 96.5923 34.7454C96.2212 34.9295 95.8629 35.1406 95.5231 35.3756C95.2002 35.5994 94.89 35.8458 94.5997 36.1106C94.5487 36.156 94.4723 36.1531 94.4255 36.105C94.3774 36.054 94.3802 35.9733 94.4312 35.9265C94.7286 35.6546 95.0486 35.3997 95.3814 35.1703C95.7312 34.9295 96.1009 34.7115 96.4818 34.5231C96.5441 34.4934 96.6192 34.5189 96.6489 34.5826C96.6574 34.601 96.6603 34.618 96.6603 34.6364L96.6617 34.635Z" fill="white"/>
<path d="M119.446 44.5296C119.446 44.5494 119.441 44.5678 119.428 44.5848C119.255 44.8298 119.064 45.0635 118.857 45.2802C118.659 45.4869 118.445 45.6824 118.217 45.858C118.173 45.892 118.109 45.8835 118.076 45.8382C118.043 45.7943 118.051 45.7334 118.094 45.7008C118.313 45.5308 118.522 45.3425 118.713 45.1428C118.912 44.9332 119.098 44.708 119.264 44.4715C119.295 44.4262 119.356 44.4149 119.4 44.446C119.428 44.4645 119.445 44.4984 119.445 44.5296H119.446Z" fill="white"/>
<path d="M81.8384 45.6019C81.7803 45.5891 81.7478 45.5296 81.7648 45.473C81.8087 45.33 81.8738 45.1997 81.9602 45.0835C82.1669 44.806 82.4346 44.6969 82.6499 44.6091C82.9756 44.476 83.3254 44.408 83.6936 44.4094C83.7488 44.4094 83.7941 44.4576 83.7913 44.5128C83.7899 44.5666 83.7446 44.6091 83.6908 44.6077C83.3495 44.6077 83.0252 44.67 82.7249 44.7932C82.5224 44.8754 82.293 44.9703 82.1202 45.2025C82.0466 45.3016 81.9913 45.4121 81.9545 45.5339C81.9404 45.5835 81.8894 45.6118 81.8384 45.6005V45.6019Z" fill="white"/>
<path d="M63.8998 8.06866C63.8998 8.11398 63.8743 8.15788 63.8304 8.17912C63.1252 8.5275 62.4709 8.95802 61.8818 9.4636C61.5051 9.78649 60.5406 10.6985 59.715 12.1713C59.3935 12.7477 59.1216 13.3553 58.9106 13.9812C58.8894 14.0464 58.82 14.0803 58.7548 14.0605C58.6883 14.0393 58.6529 13.9685 58.6741 13.9019C58.8908 13.2618 59.167 12.6387 59.4969 12.0495C60.3424 10.5413 61.3309 9.60522 61.7175 9.27383C62.3208 8.75551 62.9935 8.31224 63.7186 7.95536C63.7809 7.92421 63.8559 7.95112 63.8857 8.01484C63.8942 8.03184 63.897 8.05025 63.897 8.06866H63.8998Z" fill="white"/>
<path d="M98.8906 3.97019C98.8906 4.01551 98.8666 4.05941 98.8227 4.08207C98.1216 4.44037 97.473 4.8808 96.8924 5.39346C96.5199 5.72201 95.5683 6.64678 94.7639 8.13235C94.4495 8.71298 94.1875 9.32477 93.985 9.95356C93.9637 10.0187 93.8958 10.0541 93.8306 10.0343C93.7641 10.013 93.7272 9.94364 93.7471 9.87708C93.9552 9.23272 94.2229 8.60677 94.5444 8.01339C95.3686 6.49241 96.3443 5.54357 96.7267 5.20652C97.3229 4.6797 97.9899 4.22652 98.7094 3.85973C98.7703 3.82858 98.8467 3.85407 98.8779 3.91638C98.8864 3.93337 98.8906 3.95178 98.8906 3.97019Z" fill="white"/>
<path d="M37.8362 42.2483L42.6427 44.1983C38.305 50.5825 31.394 55.2077 23.6206 56.1382C10.5337 57.7045 -0.0395419 48.209 0.00011117 34.9323C0.0411804 21.6528 10.6809 9.61947 23.7679 8.05318C30.8629 7.20347 37.2216 9.60673 41.5494 14.1017C42.5747 15.1695 43.4882 16.352 44.2685 17.6407C44.2784 17.6563 44.2883 17.6719 44.2982 17.6889L39.394 20.1488L33.8865 22.9117L28.9355 25.3957C28.7089 25.2159 28.471 25.0502 28.2203 24.9029C27.2927 24.3477 26.2179 24.0107 25.0509 23.9484C25.0453 23.9484 25.0424 23.9456 25.0368 23.9484C23.8911 23.8535 22.7171 24.0433 21.611 24.4894C21.6039 24.4894 21.5997 24.4922 21.5969 24.4922C20.0603 25.1139 18.4048 26.1859 17.3327 27.6701C17.2464 27.7919 17.1656 27.9109 17.0863 28.0326C15.5753 30.0196 14.8969 32.4752 14.8898 35.0272C14.8799 38.2886 16.3513 41.0204 18.6625 42.6434C18.6625 42.6434 18.6724 42.6519 18.6909 42.6675C19.338 43.115 20.0447 43.4775 20.8052 43.7423C20.8293 43.7494 20.8534 43.7593 20.8774 43.7664C21.5487 43.9972 22.2596 44.1474 23.0017 44.2125C23.0088 44.2153 23.0145 44.2182 23.0215 44.2168C23.9548 44.3216 25.0453 44.34 26.3014 44.2054C22.7156 45.4035 18.8339 45.0679 15.7608 42.9436C10.2943 39.1638 9.41912 31.1497 13.8008 25.0757C17.7491 19.6064 24.6218 17.5416 29.941 19.9279C29.9863 19.9477 30.0302 19.9689 30.0755 19.9887L30.118 19.9661L35.0095 17.3844L36.328 16.723C36.3195 16.7131 36.311 16.706 36.3025 16.7018L36.3265 16.689C35.9853 16.4072 35.6355 16.1424 35.2701 15.8889C31.7268 13.4389 27.4471 12.6246 23.2226 13.2647C23.047 13.2888 22.8714 13.3185 22.6958 13.3497C22.5797 13.3709 22.4636 13.3922 22.3474 13.4148C22.186 13.4474 22.026 13.48 21.8659 13.5168C21.7441 13.5437 21.6252 13.5706 21.5034 13.6018C21.4977 13.6018 21.4921 13.6018 21.4864 13.606C21.4255 13.6202 21.3632 13.6358 21.3023 13.6513C21.2584 13.6613 21.2159 13.674 21.172 13.6853C21.0332 13.7207 20.8973 13.759 20.7599 13.7972C20.7486 13.7972 20.7387 13.8015 20.7273 13.8057C20.3974 13.8992 20.0702 14.0026 19.7473 14.1158C19.3296 14.256 18.9189 14.4132 18.5124 14.586C18.3496 14.6554 18.1867 14.7262 18.0238 14.7984C17.4531 15.0534 16.8937 15.3366 16.3485 15.6439C16.2706 15.6878 16.1913 15.7331 16.1148 15.7784C16.0284 15.828 15.9449 15.8776 15.8599 15.9286C15.7891 15.9696 15.7183 16.0121 15.6489 16.056C15.5399 16.1226 15.4308 16.1891 15.3232 16.2585C15.064 16.4228 14.8091 16.5927 14.5556 16.7726C14.4579 16.8406 14.3602 16.91 14.2639 16.9822C14.1789 17.0431 14.0954 17.1054 14.0132 17.1677C12.8619 18.0273 11.7742 19.0172 10.7815 20.1318C10.7107 20.2083 10.6413 20.289 10.5733 20.3669C10.4954 20.4561 10.4175 20.5481 10.3396 20.6388C10.249 20.7464 10.1584 20.8554 10.0692 20.9645C9.96719 21.0863 9.86947 21.2109 9.77317 21.3369C9.67545 21.4616 9.58057 21.5876 9.48569 21.7151C9.48285 21.7193 9.47861 21.725 9.47577 21.7278C9.40072 21.8284 9.32707 21.9303 9.25485 22.0323C9.19254 22.1201 9.13023 22.2079 9.06933 22.2957C9.06225 22.3056 9.05517 22.3155 9.0495 22.3254C8.96878 22.443 8.88947 22.5591 8.81158 22.6767C8.74219 22.78 8.67421 22.8848 8.60765 22.9896C8.57367 23.0392 8.54109 23.0916 8.51135 23.1412C8.46462 23.2148 8.41789 23.2913 8.37257 23.3649C8.35274 23.3947 8.33433 23.4258 8.31734 23.457C8.25502 23.5604 8.19413 23.6623 8.13323 23.7657C7.98878 24.0079 7.85283 24.2557 7.71971 24.5035C7.71688 24.5092 7.71263 24.5134 7.71121 24.5177C7.60358 24.7216 7.49737 24.927 7.39682 25.1337C7.39399 25.1394 7.38974 25.1465 7.38691 25.1521C7.25095 25.4269 7.12208 25.7044 6.99887 25.9863C6.91532 26.176 6.83601 26.3658 6.75812 26.557C6.75671 26.5612 6.75529 26.5641 6.75246 26.5697C6.62642 26.8785 6.51029 27.19 6.39983 27.503C6.36301 27.6106 6.32477 27.7168 6.29078 27.8231C5.86451 29.0877 5.56145 30.3963 5.39434 31.7331C5.33628 32.1863 5.29379 32.6395 5.26972 33.0983C5.26405 33.1833 5.2598 33.2668 5.25697 33.3532C5.25131 33.4566 5.24848 33.5586 5.24564 33.662C5.23998 33.8192 5.23856 33.9778 5.23715 34.1336C5.23715 34.363 5.23856 34.591 5.24706 34.8147C5.25131 34.928 5.25697 35.0413 5.26122 35.1532C5.27113 35.3501 5.28388 35.5469 5.29946 35.7395C5.30654 35.8075 5.31079 35.874 5.31787 35.942C5.32495 36.0114 5.33061 36.0808 5.33911 36.1474C5.35044 36.2592 5.36177 36.3697 5.37735 36.4816C5.39009 36.5878 5.40425 36.6912 5.41842 36.796C5.42833 36.8625 5.43824 36.9305 5.44816 36.9971C5.46232 37.092 5.4779 37.1868 5.49489 37.2817C5.50905 37.3709 5.52463 37.4602 5.54162 37.5494C5.56428 37.674 5.58977 37.8 5.61668 37.9233C5.63226 38.0011 5.64784 38.0776 5.66625 38.1569C5.67191 38.1852 5.67758 38.215 5.68607 38.2447C5.70307 38.3226 5.72148 38.4005 5.74131 38.4784C5.76255 38.5761 5.78804 38.6724 5.81495 38.7701C5.83761 38.8678 5.86451 38.9641 5.89284 39.0619C5.97214 39.3508 6.06136 39.6354 6.15625 39.9172C6.21856 40.1056 6.28512 40.2925 6.35451 40.4752C6.35734 40.4865 6.36159 40.4979 6.36584 40.5078C6.50038 40.8632 6.64624 41.213 6.80486 41.5543C6.84451 41.6436 6.88558 41.7314 6.92806 41.8177C6.97055 41.9055 7.01162 41.9919 7.05694 42.0769C7.09942 42.1647 7.14191 42.2497 7.18864 42.3347C7.23254 42.4196 7.27786 42.5046 7.32601 42.5881C7.37133 42.6731 7.41806 42.7567 7.46621 42.8388C7.64465 43.1532 7.83584 43.4619 8.03693 43.7622C8.09783 43.8528 8.15731 43.942 8.21962 44.0312C8.35133 44.2224 8.4887 44.4108 8.63031 44.5935C8.69546 44.6784 8.7606 44.762 8.82858 44.8441C8.84982 44.8739 8.8739 44.9036 8.89797 44.9319C9.07924 45.1557 9.26476 45.3752 9.45736 45.5876C9.52109 45.6584 9.58624 45.7292 9.65138 45.7986C9.8454 46.0082 10.0479 46.2107 10.2547 46.4076C10.4883 46.6285 10.7263 46.8452 10.9727 47.0505C11.0548 47.1213 11.137 47.1893 11.2205 47.2559C11.3026 47.3253 11.3862 47.3918 11.4726 47.4541C11.5561 47.5207 11.6425 47.5858 11.7289 47.6482C11.8139 47.7133 11.9017 47.7756 11.9895 47.8379C12.0419 47.8762 12.0943 47.913 12.1453 47.9484C12.1821 47.9725 12.2175 47.998 12.2543 48.0206C12.3605 48.0957 12.4682 48.1665 12.5772 48.2345C12.5956 48.2458 12.614 48.2585 12.6339 48.2727C12.7415 48.3421 12.8491 48.4072 12.9582 48.4724C12.9596 48.4738 12.9638 48.4752 12.9681 48.478C13.0828 48.546 13.1961 48.614 13.3136 48.6791C13.3207 48.6848 13.3292 48.6891 13.3391 48.6947C13.4 48.7287 13.4595 48.7627 13.5204 48.7953C13.7116 48.9001 13.907 49.002 14.1038 49.0997C14.1945 49.1451 14.2865 49.189 14.38 49.2329C14.5627 49.3178 14.7496 49.4 14.9366 49.4807C15.0201 49.5161 15.1065 49.5529 15.1915 49.5855C17.7194 50.6108 20.59 51.0173 23.6376 50.6519C27.1086 50.2369 30.3602 48.876 33.1387 46.8509C33.2209 46.7914 33.3044 46.7305 33.3851 46.6682C33.456 46.6186 33.5253 46.5662 33.5961 46.511C35.1582 45.3228 36.5928 43.8967 37.8362 42.2454V42.2483Z" fill="black"/>
<path d="M44.7925 20.7803L44.7288 41.6066L44.7104 41.5995L44.2997 41.4324L39.5781 39.5178L34.4969 37.4572L30.1053 35.6742L22.1719 32.4567L30.8955 27.9532L35.4939 25.5797L40.8216 22.8295L44.7925 20.7803Z" fill="#A01E5D"/>
<path d="M53.0632 4.62305H50.8809V59.8003H53.0632V4.62305Z" fill="#231F20"/>
</svg>
